<svg width="25" height="20" viewBox="0 0 25 20" fill="none" xmlns="http://www.w3.org/2000/svg">
<g id="Page-1">
<g id="Dribbble-Light-Preview">
<g id="icons">
<path id="twitter-[#154]" fill-rule="evenodd" clip-rule="evenodd" d="M7.8626 20C17.2965 20 22.4565 12.3044 22.4565 5.63153C22.4565 5.41246 22.4565 5.19505 22.4415 4.97845C23.4453 4.26464 24.3116 3.37836 25.0003 2.36428C24.0653 2.77287 23.0715 3.04082 22.0553 3.15896C23.1253 2.52762 23.9266 1.53574 24.3103 0.365349C23.3028 0.953619 22.2015 1.3688 21.0528 1.59156C19.1102 -0.441553 15.8615 -0.540058 13.7952 1.37244C12.4639 2.60559 11.8977 4.44421 12.3114 6.19794C8.1876 5.99365 4.34506 4.07626 1.74002 0.921997C0.378755 3.22954 1.07501 6.18044 3.32879 7.6622C2.51253 7.63881 1.71377 7.42244 1.00001 7.03108V7.09517C1.00126 9.49873 2.72253 11.5683 5.11507 12.0446C4.36006 12.2476 3.56755 12.2771 2.80004 12.1306C3.47129 14.1884 5.39757 15.5978 7.59135 15.6384C5.77507 17.0438 3.5313 17.807 1.22127 17.8045C0.813761 17.8033 0.406255 17.7799 0 17.7319C2.34628 19.2137 5.07506 20 7.8626 19.9963" fill="white"/>
</g>
</g>
</g>
</svg>
