<svg width="39" height="45" viewBox="0 0 39 45" fill="none" xmlns="http://www.w3.org/2000/svg">
<g id="Frame" clip-path="url(#clip0_87_334)">
<g id="Group">
<path id="Vector" d="M0 20.2406C0 16.0223 0 11.8039 0 7.59805C0 3.30459 3.30459 0 7.58554 0C13.5188 0 19.452 0 25.3978 0C29.6912 0 32.9833 3.29207 32.9958 7.58554C32.9958 10.0389 32.9958 12.4924 32.9958 14.9458C32.9958 15.9096 32.3825 16.573 31.5188 16.5855C30.63 16.5981 30.0042 15.9221 30.0042 14.9458C30.0042 12.4924 30.0167 10.0389 30.0042 7.58554C29.9917 5.42003 28.6523 3.68011 26.5994 3.15438C26.1613 3.04172 25.7232 3.00417 25.2851 3.00417C19.427 2.99166 13.5688 2.99166 7.71071 3.00417C4.94437 3.00417 3.00417 4.94437 3.00417 7.71071C3.00417 16.0473 3.00417 24.3964 3.00417 32.733C3.00417 35.5369 4.94437 37.4771 7.73574 37.4771C11.6537 37.4771 15.5841 37.4771 19.5021 37.4771C20.2656 37.4771 20.9166 38.0403 20.9917 38.7663C21.0793 39.5174 20.6412 40.2184 19.9152 40.4186C19.7524 40.4687 19.5772 40.4687 19.4019 40.4687C15.3714 40.4687 11.3408 40.4812 7.31015 40.4687C3.76773 40.4687 0.588317 37.6773 0.0876217 34.1474C0.0375522 33.7469 0 33.3463 0 32.9332C0 28.7024 0 24.4715 0 20.2406Z" fill="black"/>
<path id="Vector_2" d="M23.9957 39.1545C23.9957 37.9528 24.0082 36.7511 23.9832 35.5495C23.9832 35.3492 23.8705 35.0988 23.7329 34.9486C21.2169 32.37 20.3532 29.3158 21.4046 25.8735C22.4561 22.4312 24.8719 20.3534 28.3893 19.6273C33.2961 18.6134 38.2781 22.2435 38.9039 27.2379C39.2794 30.2421 38.3657 32.7956 36.2502 34.9486C36.1125 35.0988 35.9999 35.3492 35.9999 35.5495C35.9874 37.8902 35.9749 40.231 35.9874 42.5717C35.9874 43.5105 35.6244 44.249 34.7982 44.6997C33.9721 45.1503 33.1459 45.0502 32.3698 44.5369C31.6814 44.0738 30.9929 43.6232 30.317 43.1475C30.0792 42.9723 29.9039 42.9848 29.6536 43.16C28.9776 43.6357 28.2892 44.0863 27.6007 44.5495C26.8246 45.0752 26.011 45.1628 25.1724 44.7122C24.3462 44.2616 23.9707 43.5356 23.9832 42.5842C24.0082 41.4326 23.9957 40.2935 23.9957 39.1545ZM29.9915 22.4938C26.712 22.4938 23.9957 25.2101 23.9957 28.4897C23.9957 31.7567 26.6995 34.4855 29.979 34.498C33.2711 34.5105 35.9999 31.7817 35.9999 28.4771C35.9874 25.1976 33.2711 22.4813 29.9915 22.4938ZM27.0374 36.989C27.0374 38.4535 27.0374 39.8429 27.0374 41.2949C27.7509 40.8193 28.4144 40.3812 29.0653 39.9305C29.4408 39.6677 29.8664 39.555 30.3045 39.6552C30.5799 39.7177 30.8552 39.8805 31.0931 40.0432C31.7189 40.4438 32.3198 40.8568 32.9707 41.2949C32.9707 39.8179 32.9707 38.4285 32.9707 36.9764C30.9804 37.6649 29.0152 37.6524 27.0374 36.989Z" fill="black"/>
<path id="Vector_3" d="M15.2838 19.4895C13.1934 19.4895 11.103 19.4895 9.01262 19.4895C8.24906 19.4895 7.59815 18.9262 7.51053 18.2252C7.41039 17.4616 7.8485 16.7732 8.56199 16.5604C8.73723 16.5103 8.92499 16.4978 9.11276 16.4978C13.2185 16.4978 17.3242 16.4978 21.4299 16.4978C22.3687 16.4978 23.0571 17.1362 23.0446 17.9999C23.0446 18.8636 22.3562 19.4895 21.4173 19.4895C19.377 19.4895 17.3242 19.4895 15.2838 19.4895Z" fill="black"/>
<path id="Vector_4" d="M14.2949 9.00007C15.9973 9.00007 17.6996 9.00007 19.402 9.00007C20.3283 9.00007 20.9792 9.61342 20.9917 10.4771C21.0042 11.3659 20.3408 11.9917 19.402 11.9917C15.9597 11.9917 12.53 11.9917 9.08768 11.9917C8.14888 11.9917 7.48546 11.3533 7.49798 10.4646C7.51049 9.6009 8.1614 9.00007 9.08768 8.98755C10.8276 9.00007 12.555 9.00007 14.2949 9.00007Z" fill="black"/>
<path id="Vector_5" d="M13.1682 22.4938C14.4575 22.4938 15.7593 22.5439 17.0486 22.4813C18.1126 22.4312 18.776 23.2198 18.776 23.9834C18.776 24.8471 18.0249 25.523 17.0736 25.5105C14.4325 25.4604 11.8038 25.4604 9.16263 25.5105C8.12369 25.523 7.46027 24.6843 7.4853 24.0084C7.51034 23.1071 8.14873 22.5063 9.1376 22.5063C10.4895 22.4938 11.8288 22.4938 13.1682 22.4938Z" fill="black"/>
<path id="Vector_6" d="M12.7801 31.4812C11.5409 31.4812 10.3142 31.4812 9.07499 31.4812C8.16122 31.4812 7.4978 30.8553 7.4978 29.9916C7.4978 29.1154 8.14871 28.4895 9.06248 28.4895C11.5409 28.4895 14.0319 28.4895 16.5103 28.4895C17.4241 28.4895 18.0875 29.1279 18.0875 29.9791C18.0875 30.8428 17.4366 31.4812 16.5228 31.4812C15.2711 31.4937 14.0194 31.4812 12.7801 31.4812Z" fill="black"/>
</g>
</g>
<defs>
<clipPath id="clip0_87_334">
<rect width="38.9917" height="45" fill="white"/>
</clipPath>
</defs>
</svg>
