<svg width="126" height="90" viewBox="0 0 126 90" fill="none" xmlns="http://www.w3.org/2000/svg">
<g clip-path="url(#clip0_236_177)">
<path d="M0 36.4573C0.490018 35.9347 0.980036 35.3793 1.50272 34.8566C12.6751 23.6842 23.8475 12.5118 35.02 1.30672C35.902 0.392015 36.8167 0 38.1234 0C54.5554 0.0326679 71.02 0.0326679 87.4846 0.0326679C88.4319 0.0326679 89.2813 0.130671 89.7713 1.07804C90.2613 2.05808 89.9673 2.87477 89.216 3.59347C87.2232 5.55354 85.2305 7.54628 82.9437 9.80036C84.6751 9.80036 86.0799 9.83303 87.4846 9.80036C88.4646 9.76769 89.1833 10.0944 89.8693 10.7477C101.368 22.2468 112.835 33.7459 124.367 45.245C125.085 45.9637 125.51 46.7477 125.085 47.7604C124.661 48.7731 123.779 48.9691 122.766 48.9365C121.688 48.9038 120.577 48.9365 119.368 48.9365C119.368 49.5245 119.368 50.0145 119.368 50.4719C119.368 62.7877 119.368 75.0708 119.368 87.3866C119.368 89.412 118.78 90 116.788 90C80.6897 90 44.5917 90 8.49365 90C6.50091 90 5.91289 89.412 5.91289 87.3539C5.91289 75.1034 5.91289 62.8203 5.91289 50.5699C5.91289 50.0799 5.91289 49.5898 5.91289 48.9365C4.83485 48.9365 3.78947 48.8711 2.7441 48.9365C1.60073 49.0345 0.686025 48.7078 0.0326679 47.6951C0.0326679 47.2051 0.0326679 46.7151 0.0326679 46.225C2.28675 43.9383 4.54083 41.6189 6.79492 39.2995C6.63158 39.2015 6.56624 39.1688 6.50091 39.1688C5.22686 39.1688 3.98548 39.1034 2.71143 39.1688C1.56806 39.2341 0.653358 38.9074 0.0326679 37.9274C0 37.4374 0 36.9474 0 36.4573ZM57.8875 44.951C60.2722 45.147 60.6316 45.539 60.6316 47.9564C60.6316 60.1742 60.6316 72.392 60.6316 84.6425C60.6316 85.0998 60.6316 85.5898 60.6316 86.0145C65.9565 86.0145 71.118 86.0145 76.2795 86.0145C76.2795 85.4265 76.2795 84.9365 76.2795 84.4465C76.2795 75.3975 76.2795 66.3484 76.2795 57.2994C76.2795 55.4374 76.9002 54.8167 78.7623 54.8167C84.9038 54.8167 91.0781 54.8167 97.2196 54.8167C99.147 54.8167 99.7677 55.4047 99.7677 57.3648C99.7677 66.4465 99.7677 75.5281 99.7677 84.6098C99.7677 85.0671 99.7677 85.5572 99.7677 85.9818C105.093 85.9818 110.221 85.9818 115.416 85.9818C115.416 82.225 115.416 78.5662 115.416 74.8748C115.416 65.7931 115.416 56.7114 115.416 47.6298C115.416 45.637 115.906 45.1143 117.866 44.9837C117.964 44.9837 118.062 44.9183 118.062 44.951C108.033 34.922 97.971 24.8603 87.9419 14.8639C78.0436 24.8276 67.9819 34.8566 57.8875 44.951ZM9.8657 48.9691C9.8657 61.3829 9.8657 73.6987 9.8657 85.9818C25.5463 85.9818 41.1289 85.9818 56.6788 85.9818C56.6788 73.6007 56.6788 61.3176 56.6788 48.9691C41.0635 48.9691 25.5136 48.9691 9.8657 48.9691ZM80.265 86.0472C85.5245 86.0472 90.6534 86.0472 95.7822 86.0472C95.7822 76.9328 95.7822 67.8512 95.7822 58.8022C90.5554 58.8022 85.3938 58.8022 80.265 58.8022C80.265 67.9165 80.265 76.9328 80.265 86.0472ZM83.2051 13.7205C82.2904 13.7205 81.6697 13.7858 81.0817 13.7205C79.677 13.5245 78.6969 14.0799 77.6842 15.0926C70.1053 22.7695 62.4283 30.3811 54.8167 38.0254C54 38.8421 53.1833 39.2015 52.0399 39.2015C39.2668 39.1688 26.461 39.1688 13.6878 39.2015C13.2632 39.2015 12.6751 39.1688 12.4138 39.4301C10.5517 41.2269 8.75499 43.0563 6.79492 45.049C7.28494 45.0817 7.51361 45.0817 7.74229 45.0817C22.2142 45.0817 36.6534 45.0817 51.1252 45.049C51.6806 45.049 52.3666 44.6897 52.7586 44.265C62.5917 34.4646 72.4247 24.6316 82.2251 14.8312C82.5191 14.4719 82.7804 14.1779 83.2051 13.7205ZM65.6951 3.92015C61.8403 3.92015 58.3448 3.95281 54.8494 3.88748C54 3.88748 53.412 4.11615 52.824 4.70417C48.9038 8.68966 44.951 12.6098 40.9982 16.5626C40.7368 16.824 40.4755 17.118 40.1815 17.412C40.3122 17.51 40.3775 17.5753 40.4428 17.5753C44.1016 17.5753 47.7604 17.608 51.4519 17.5753C51.7459 17.5753 52.1053 17.4446 52.3013 17.2486C56.7114 12.9365 61.0889 8.55898 65.6951 3.92015ZM83.3031 3.92015C79.4483 3.92015 75.9528 3.95281 72.4574 3.88748C71.608 3.88748 71.02 4.11615 70.4319 4.70417C66.5118 8.68966 62.559 12.6098 58.6062 16.5626C58.3448 16.824 58.0835 17.118 57.7895 17.412C57.9201 17.51 57.9855 17.5753 58.0508 17.5753C61.7096 17.5753 65.3684 17.608 69.0599 17.5753C69.3539 17.5753 69.7132 17.4446 69.9093 17.2486C74.3194 12.9365 78.6969 8.55898 83.3031 3.92015ZM22.3122 35.2486C26.265 35.2486 29.7931 35.2813 33.3539 35.216C33.9419 35.216 34.6933 34.8893 35.118 34.4646C39.1688 30.5118 43.1543 26.4936 47.1398 22.4755C47.3684 22.2468 47.5971 21.9855 48.0218 21.5281C44.0036 21.5281 40.2142 21.4955 36.4574 21.5608C36.098 21.5608 35.6733 21.9528 35.3793 22.2468C32.7006 24.8929 30.0871 27.539 27.4084 30.1851C25.8076 31.7858 24.1742 33.3866 22.3122 35.2486ZM40.1488 35.118C40.3775 35.1833 40.4755 35.2486 40.5735 35.2486C44.167 35.2486 47.7278 35.2813 51.3212 35.216C51.7786 35.216 52.3013 34.8893 52.628 34.5299C56.7114 30.4791 60.7623 26.4283 64.8131 22.3448C65.0091 22.1488 65.2051 21.8875 65.5318 21.5281C61.8076 21.5281 58.3122 21.5608 54.8167 21.4955C53.9673 21.4955 53.3793 21.7241 52.7913 22.3122C48.8712 26.2976 44.9183 30.2178 40.9655 34.1706C40.7368 34.4646 40.4755 34.7586 40.1488 35.118ZM24.3376 17.6407C27.7677 17.6407 30.9038 17.6733 34.0073 17.608C34.3339 17.608 34.726 17.2813 34.9873 16.9873C39.1035 12.9038 43.1869 8.82033 47.2704 4.73684C47.4664 4.54083 47.6298 4.27949 47.9238 3.95281C44.6897 3.95281 41.6189 3.95281 38.5808 3.98548C38.2541 3.98548 37.8621 4.18149 37.6334 4.41016C33.2559 8.68966 28.9111 13.0345 24.3376 17.6407ZM6.72958 35.2486C10.1597 35.2486 13.2958 35.2813 16.3993 35.216C16.726 35.216 17.118 34.8893 17.3793 34.6279C21.4955 30.5445 25.579 26.461 29.6624 22.3775C29.8584 22.1815 30.0218 21.9201 30.3158 21.5608C27.0817 21.5608 24.0109 21.5608 20.9728 21.5935C20.6461 21.5935 20.2541 21.7568 20.0254 21.9855C15.6479 26.2976 11.3031 30.6425 6.72958 35.2486Z" fill="black"/>
<mask id="mask0_236_177" style="mask-type:alpha" maskUnits="userSpaceOnUse" x="-7" y="-5" width="99" height="44">
<path d="M54 39L90.5 2C91 1.16667 91.8 -0.8 91 -2C90.2 -3.2 73.6667 -4.16667 65.5 -4.5L35.5 -4C22.6667 5.83333 -3.3 26.2 -4.5 29C-5.7 31.8 -6.33333 36.8333 -6.5 39H54Z" fill="#D9D9D9"/>
</mask>
<g mask="url(#mask0_236_177)">
<path d="M0 36.4573C0.490018 35.9347 0.980036 35.3793 1.50272 34.8566C12.6751 23.6842 23.8475 12.5118 35.02 1.30672C35.902 0.392015 36.8167 0 38.1234 0C54.5554 0.0326679 71.02 0.0326679 87.4846 0.0326679C88.4319 0.0326679 89.2813 0.130671 89.7713 1.07804C90.2613 2.05808 89.9673 2.87477 89.216 3.59347C87.2232 5.55354 85.2305 7.54628 82.9437 9.80036C84.6751 9.80036 86.0799 9.83303 87.4846 9.80036C88.4646 9.76769 89.1833 10.0944 89.8693 10.7477C101.368 22.2468 112.835 33.7459 124.367 45.245C125.085 45.9637 125.51 46.7477 125.085 47.7604C124.661 48.7731 123.779 48.9691 122.766 48.9365C121.688 48.9038 120.577 48.9365 119.368 48.9365C119.368 49.5245 119.368 50.0145 119.368 50.4719C119.368 62.7877 119.368 75.0708 119.368 87.3866C119.368 89.412 118.78 90 116.788 90C80.6897 90 44.5917 90 8.49365 90C6.50091 90 5.91289 89.412 5.91289 87.3539C5.91289 75.1034 5.91289 62.8203 5.91289 50.5699C5.91289 50.0799 5.91289 49.5898 5.91289 48.9365C4.83485 48.9365 3.78947 48.8711 2.7441 48.9365C1.60073 49.0345 0.686025 48.7078 0.0326679 47.6951C0.0326679 47.2051 0.0326679 46.7151 0.0326679 46.225C2.28675 43.9383 4.54083 41.6189 6.79492 39.2995C6.63158 39.2015 6.56624 39.1688 6.50091 39.1688C5.22686 39.1688 3.98548 39.1034 2.71143 39.1688C1.56806 39.2341 0.653358 38.9074 0.0326679 37.9274C0 37.4374 0 36.9474 0 36.4573ZM57.8875 44.951C60.2722 45.147 60.6316 45.539 60.6316 47.9564C60.6316 60.1742 60.6316 72.392 60.6316 84.6425C60.6316 85.0998 60.6316 85.5898 60.6316 86.0145C65.9565 86.0145 71.118 86.0145 76.2795 86.0145C76.2795 85.4265 76.2795 84.9365 76.2795 84.4465C76.2795 75.3975 76.2795 66.3484 76.2795 57.2994C76.2795 55.4374 76.9002 54.8167 78.7623 54.8167C84.9038 54.8167 91.0781 54.8167 97.2196 54.8167C99.147 54.8167 99.7677 55.4047 99.7677 57.3648C99.7677 66.4465 99.7677 75.5281 99.7677 84.6098C99.7677 85.0671 99.7677 85.5572 99.7677 85.9818C105.093 85.9818 110.221 85.9818 115.416 85.9818C115.416 82.225 115.416 78.5662 115.416 74.8748C115.416 65.7931 115.416 56.7114 115.416 47.6298C115.416 45.637 115.906 45.1143 117.866 44.9837C117.964 44.9837 118.062 44.9183 118.062 44.951C108.033 34.922 97.971 24.8603 87.9419 14.8639C78.0436 24.8276 67.9819 34.8566 57.8875 44.951ZM9.8657 48.9691C9.8657 61.3829 9.8657 73.6987 9.8657 85.9818C25.5463 85.9818 41.1289 85.9818 56.6788 85.9818C56.6788 73.6007 56.6788 61.3176 56.6788 48.9691C41.0635 48.9691 25.5136 48.9691 9.8657 48.9691ZM80.265 86.0472C85.5245 86.0472 90.6534 86.0472 95.7822 86.0472C95.7822 76.9328 95.7822 67.8512 95.7822 58.8022C90.5554 58.8022 85.3938 58.8022 80.265 58.8022C80.265 67.9165 80.265 76.9328 80.265 86.0472ZM83.2051 13.7205C82.2904 13.7205 81.6697 13.7858 81.0817 13.7205C79.677 13.5245 78.6969 14.0799 77.6842 15.0926C70.1053 22.7695 62.4283 30.3811 54.8167 38.0254C54 38.8421 53.1833 39.2015 52.0399 39.2015C39.2668 39.1688 26.461 39.1688 13.6878 39.2015C13.2632 39.2015 12.6751 39.1688 12.4138 39.4301C10.5517 41.2269 8.75499 43.0563 6.79492 45.049C7.28494 45.0817 7.51361 45.0817 7.74229 45.0817C22.2142 45.0817 36.6534 45.0817 51.1252 45.049C51.6806 45.049 52.3666 44.6897 52.7586 44.265C62.5917 34.4646 72.4247 24.6316 82.2251 14.8312C82.5191 14.4719 82.7804 14.1779 83.2051 13.7205ZM65.6951 3.92015C61.8403 3.92015 58.3448 3.95281 54.8494 3.88748C54 3.88748 53.412 4.11615 52.824 4.70417C48.9038 8.68966 44.951 12.6098 40.9982 16.5626C40.7368 16.824 40.4755 17.118 40.1815 17.412C40.3122 17.51 40.3775 17.5753 40.4428 17.5753C44.1016 17.5753 47.7604 17.608 51.4519 17.5753C51.7459 17.5753 52.1053 17.4446 52.3013 17.2486C56.7114 12.9365 61.0889 8.55898 65.6951 3.92015ZM83.3031 3.92015C79.4483 3.92015 75.9528 3.95281 72.4574 3.88748C71.608 3.88748 71.02 4.11615 70.4319 4.70417C66.5118 8.68966 62.559 12.6098 58.6062 16.5626C58.3448 16.824 58.0835 17.118 57.7895 17.412C57.9201 17.51 57.9855 17.5753 58.0508 17.5753C61.7096 17.5753 65.3684 17.608 69.0599 17.5753C69.3539 17.5753 69.7132 17.4446 69.9093 17.2486C74.3194 12.9365 78.6969 8.55898 83.3031 3.92015ZM22.3122 35.2486C26.265 35.2486 29.7931 35.2813 33.3539 35.216C33.9419 35.216 34.6933 34.8893 35.118 34.4646C39.1688 30.5118 43.1543 26.4936 47.1398 22.4755C47.3684 22.2468 47.5971 21.9855 48.0218 21.5281C44.0036 21.5281 40.2142 21.4955 36.4574 21.5608C36.098 21.5608 35.6733 21.9528 35.3793 22.2468C32.7006 24.8929 30.0871 27.539 27.4084 30.1851C25.8076 31.7858 24.1742 33.3866 22.3122 35.2486ZM40.1488 35.118C40.3775 35.1833 40.4755 35.2486 40.5735 35.2486C44.167 35.2486 47.7278 35.2813 51.3212 35.216C51.7786 35.216 52.3013 34.8893 52.628 34.5299C56.7114 30.4791 60.7623 26.4283 64.8131 22.3448C65.0091 22.1488 65.2051 21.8875 65.5318 21.5281C61.8076 21.5281 58.3122 21.5608 54.8167 21.4955C53.9673 21.4955 53.3793 21.7241 52.7913 22.3122C48.8712 26.2976 44.9183 30.2178 40.9655 34.1706C40.7368 34.4646 40.4755 34.7586 40.1488 35.118ZM24.3376 17.6407C27.7677 17.6407 30.9038 17.6733 34.0073 17.608C34.3339 17.608 34.726 17.2813 34.9873 16.9873C39.1035 12.9038 43.1869 8.82033 47.2704 4.73684C47.4664 4.54083 47.6298 4.27949 47.9238 3.95281C44.6897 3.95281 41.6189 3.95281 38.5808 3.98548C38.2541 3.98548 37.8621 4.18149 37.6334 4.41016C33.2559 8.68966 28.9111 13.0345 24.3376 17.6407ZM6.72958 35.2486C10.1597 35.2486 13.2958 35.2813 16.3993 35.216C16.726 35.216 17.118 34.8893 17.3793 34.6279C21.4955 30.5445 25.579 26.461 29.6624 22.3775C29.8584 22.1815 30.0218 21.9201 30.3158 21.5608C27.0817 21.5608 24.0109 21.5608 20.9728 21.5935C20.6461 21.5935 20.2541 21.7568 20.0254 21.9855C15.6479 26.2976 11.3031 30.6425 6.72958 35.2486Z" fill="#348724"/>
</g>
</g>
<defs>
<clipPath id="clip0_236_177">
<rect width="125.216" height="90" fill="white"/>
</clipPath>
</defs>
</svg>
