<svg width="102" height="80" viewBox="0 0 102 80" fill="none" xmlns="http://www.w3.org/2000/svg">
<g clip-path="url(#clip0_236_182)">
<path d="M101.068 78.6553C100.435 79.6836 99.5122 79.9737 98.3256 79.9737C69.4529 79.9473 40.5537 79.9737 11.6809 79.9473C5.9855 79.9473 1.60844 76.6513 0.316414 71.4569C0.0791035 70.534 0 69.5848 0 68.6355C0 49.5188 0 30.4285 0 11.3119C0 5.6164 4.06065 0.764719 9.38695 0.105523C15.3724 -0.632776 20.4351 2.82141 21.8853 8.62233C21.9117 8.7278 21.938 8.80691 21.9908 9.01785C22.4127 9.04422 22.8609 9.07059 23.3092 9.07059C48.3059 9.07059 73.3026 9.07059 98.2993 9.04422C99.4858 9.04422 100.409 9.33426 101.068 10.3362C101.068 33.118 101.068 55.8735 101.068 78.6553ZM22.149 13.1312C22.149 13.6586 22.149 14.0805 22.149 14.5024C22.149 32.2215 22.149 49.9671 22.149 67.6863C22.149 68.0554 22.149 68.3982 22.149 68.7673C22.0962 70.0066 21.3316 70.7977 20.1978 70.7977C19.0903 70.7977 18.2729 70.0066 18.1674 68.7937C18.1147 68.24 18.0883 67.6863 17.9565 67.1326C17.1127 63.4411 13.3685 61.0943 9.59789 61.859C5.93276 62.5973 3.42782 66.2888 4.08701 69.9803C4.74621 73.6718 7.5412 75.913 11.5227 75.913C39.71 75.913 67.8972 75.913 96.0844 75.913C96.4008 75.913 96.7172 75.8867 97.0336 75.8603C97.0336 54.8979 97.0336 33.9882 97.0336 13.0785C72.0897 13.1312 47.1721 13.1312 22.149 13.1312ZM3.95517 60.2769C8.72775 56.9018 13.4212 56.9282 18.1938 60.2242C18.1938 59.7232 18.1938 59.354 18.1938 59.0113C18.1938 46.6975 18.1938 34.4101 18.1938 22.0963C18.1938 18.3521 18.2202 14.5815 18.1674 10.8372C18.1147 6.40743 13.7904 3.08509 9.51879 4.1398C6.09097 4.9572 3.95517 7.75219 3.95517 11.4437C3.95517 27.3962 3.95517 43.3488 3.95517 59.3013C3.95517 59.5913 3.95517 59.855 3.95517 60.2769Z" fill="black"/>
<path d="M59.7232 17.3765C69.7166 17.3765 79.7363 17.3765 89.7298 17.3765C90.0198 17.3765 90.3099 17.3765 90.6263 17.3765C92.0765 17.4292 92.7884 18.1411 92.7884 19.6177C92.7884 24.0475 92.7884 28.5037 92.7884 32.9335C92.7884 44.9836 92.7884 57.0073 92.7884 69.0574C92.7884 71.0086 92.1292 71.6942 90.2044 71.6942C69.8484 71.6942 49.4924 71.6942 29.1101 71.6942C27.1853 71.6942 26.4733 70.9823 26.4733 69.0838C26.4733 52.7094 26.4733 36.3086 26.4733 19.9341C26.4733 18.062 27.1589 17.3765 29.031 17.3765C39.2617 17.3765 49.4924 17.3765 59.7232 17.3765ZM88.7805 67.5808C88.7805 52.1293 88.7805 36.7832 88.7805 21.4371C69.3211 21.4371 49.9407 21.4371 30.5076 21.4371C30.5076 36.8359 30.5076 52.182 30.5076 67.5808C49.9407 67.5808 69.3211 67.5808 88.7805 67.5808Z" fill="black"/>
<path d="M57.5874 51.7865C57.1391 51.7865 56.7963 51.7865 56.4272 51.7865C51.0218 51.7865 45.6427 51.7865 40.2373 51.7865C38.4707 51.7865 37.6005 50.7581 37.9433 49.0706C39.1562 42.5577 40.3955 36.0449 41.6348 29.532C41.8985 28.1873 42.5577 27.6072 43.9288 27.6072C54.3969 27.5808 64.8385 27.6072 75.3065 27.6072C76.6513 27.6072 77.3369 28.1609 77.5742 29.4529C78.8135 35.9921 80.0791 42.5314 81.2657 49.097C81.6085 50.89 80.7383 51.8128 78.8662 51.8128C73.5135 51.8128 68.1345 51.8128 62.7818 51.8128C62.4127 51.8128 62.0699 51.8128 61.648 51.8128C61.648 53.685 61.648 55.478 61.648 57.3765C61.9908 57.4028 62.3336 57.4292 62.6763 57.4292C65.1549 57.4292 67.6071 57.4028 70.0857 57.4556C71.3777 57.4819 72.2215 58.3257 72.2215 59.4332C72.2215 60.5406 71.3514 61.358 70.0857 61.4371C69.822 61.4635 69.5584 61.4371 69.2947 61.4371C63.6256 61.4371 57.9829 61.4371 52.3138 61.4371C51.2327 61.4371 50.1516 61.4635 49.0706 61.4107C47.884 61.358 47.0402 60.4615 47.0402 59.4068C47.0402 58.3257 47.884 57.5083 49.0969 57.4292C49.3606 57.4028 49.6243 57.4292 49.888 57.4292C52.1028 57.4292 54.2914 57.4292 56.5063 57.4292C56.8491 57.4292 57.2182 57.4292 57.6137 57.4292C57.5874 55.5043 57.5874 53.7113 57.5874 51.7865ZM76.9941 47.7522C76.6513 45.9592 76.3085 44.2189 76.0185 42.4786C75.913 41.8458 75.6757 41.6876 75.0692 41.6876C70.7976 41.714 66.5261 41.6876 62.2545 41.714C62.0699 41.714 61.8853 41.7403 61.7007 41.7667C61.7007 43.797 61.7007 45.7746 61.7007 47.7522C66.8161 47.7522 71.8787 47.7522 76.9941 47.7522ZM57.5874 41.714C52.973 41.714 48.4377 41.714 43.9288 41.7403C43.7179 41.7403 43.3751 42.004 43.3487 42.1886C42.9796 44.0343 42.6368 45.8801 42.294 47.7786C47.4621 47.7786 52.4984 47.7786 57.6137 47.7786C57.5874 45.7482 57.5874 43.797 57.5874 41.714ZM73.9882 31.6942C69.822 31.6942 65.735 31.6942 61.648 31.6942C61.648 33.6981 61.648 35.623 61.648 37.6006C66.1305 37.6006 70.5603 37.6006 75.0956 37.6006C74.7264 35.5966 74.3573 33.6718 73.9882 31.6942ZM57.6137 31.6151C53.6058 31.6151 49.7034 31.6151 45.8009 31.6415C45.59 31.6415 45.2736 31.8524 45.2208 32.0106C44.8517 33.8564 44.5089 35.7285 44.1661 37.6533C48.7014 37.6533 53.1312 37.6533 57.6137 37.6533C57.6137 35.623 57.6137 33.6981 57.6137 31.6151Z" fill="#348724"/>
</g>
<defs>
<clipPath id="clip0_236_182">
<rect width="101.068" height="80" fill="white"/>
</clipPath>
</defs>
</svg>
