<svg width="77" height="90" viewBox="0 0 77 90" fill="none" xmlns="http://www.w3.org/2000/svg">
<g clip-path="url(#clip0_236_42)">
<path d="M39.3816 0C41.1605 0.493151 42.4638 1.70841 43.8023 2.90607C49.1037 7.67906 55.3209 10.5147 62.3483 11.6067C64.3033 11.9061 66.2935 12.0646 68.2662 12.3112C72.775 12.8748 76.4031 16.908 76.4736 21.4344C76.544 26.3483 76.7025 31.2798 76.5969 36.1937C76.4384 43.4325 75.6634 50.6184 73.4795 57.5577C70.1155 68.3366 63.7573 76.8434 54.2642 82.9902C50.0196 85.7378 45.4755 87.8689 40.7202 89.5597C39.2759 90.0881 37.7965 90.1937 36.3346 89.683C27.8454 86.7417 20.1487 82.5147 13.8434 75.9804C8.52446 70.4325 5.00195 63.8806 2.85323 56.5362C1.63796 52.3444 0.968685 48.047 0.528372 43.7143C-0.211354 36.1761 -0.0352289 28.6204 0.193734 21.0646C0.334634 16.8728 4.03326 12.8571 8.22505 12.3112C10.8845 11.9589 13.5793 11.7476 16.2211 11.2368C21.0117 10.3209 25.4501 8.45401 29.4305 5.6184C30.8748 4.57926 32.2485 3.41683 33.5871 2.23679C34.6967 1.25049 35.8591 0.422701 37.2857 0C37.9726 0 38.6771 0 39.3816 0ZM71.2074 30.5577C71.2074 27.6869 71.2251 24.816 71.2074 21.9452C71.1722 19.4795 69.728 17.8767 67.3151 17.5421C64.5675 17.1546 61.7847 16.9609 59.0724 16.3973C51.728 14.8826 45.2642 11.5538 39.7515 6.42857C38.184 4.98434 38.4834 4.98434 36.9159 6.42857C31.7906 11.184 25.8552 14.4775 19.0567 16.045C15.8865 16.7847 12.593 17.0665 9.36986 17.5421C6.99217 17.8943 5.51272 19.4618 5.47749 21.8571C5.42465 26.8063 5.3542 31.7554 5.42465 36.7045C5.51272 42.8689 6.23483 48.9628 7.92563 54.8982C10.18 62.8239 14.2661 69.6223 20.5714 75.0294C25.6438 79.3796 31.4736 82.3386 37.726 84.5401C38.1311 84.681 38.6595 84.6458 39.0646 84.4873C40.544 83.9589 42.0235 83.3953 43.4677 82.7613C48.5225 80.5597 53.1722 77.7241 57.2407 73.9726C64.3562 67.3855 68.1781 59.0724 69.957 49.6849C71.1546 43.3797 71.3836 36.9687 71.2074 30.5577Z" fill="black"/>
<path d="M37.4266 67.4031C24.816 66.9804 14.6184 55.8317 16.0274 42.5695C17.2955 30.7162 27.8982 21.3288 40.8082 22.7202C52.6262 23.9883 61.9961 34.5558 60.6223 47.4481C59.3366 59.4775 48.8571 67.9139 37.4266 67.4031ZM38.2896 62.1018C47.7123 62.1546 55.3386 54.5812 55.4266 45.0704C55.5147 35.6301 47.8708 27.9335 38.3601 27.8806C28.9374 27.8278 21.3111 35.4012 21.2231 44.9119C21.135 54.3523 28.7965 62.0665 38.2896 62.1018Z" fill="#348724"/>
<path d="M34.3092 48.4872C37.7789 45.0176 41.09 41.6712 44.454 38.3777C44.9824 37.8669 45.7573 37.4618 46.4794 37.3209C47.5714 37.1096 48.5929 37.7788 49.0333 38.7827C49.4736 39.8043 49.3855 40.7906 48.6282 41.6536C48.0293 42.3229 47.3601 42.9569 46.726 43.591C43.362 46.9726 39.9804 50.3366 36.5988 53.7182C35.0489 55.2681 33.6751 55.2681 32.1252 53.7358C30.681 52.2916 29.2016 50.8649 27.7926 49.3679C26.3307 47.818 27.0352 45.4403 29.0607 44.9295C30.0646 44.6829 30.91 45.0176 31.6145 45.7221C32.5127 46.6027 33.3581 47.5186 34.3092 48.4872Z" fill="#348724"/>
</g>
<defs>
<clipPath id="clip0_236_42">
<rect width="76.6145" height="90" fill="white"/>
</clipPath>
</defs>
</svg>
