<svg width="27" height="25" viewBox="0 0 27 25" fill="none" xmlns="http://www.w3.org/2000/svg">
<g id="Frame" clip-path="url(#clip0_88_396)">
<g id="Group">
<path id="Vector" d="M0 9.90348C0 9.76735 0 9.63122 0 9.49509C0.176967 9.11393 0.469643 8.94377 0.898448 8.92335C2.15764 8.85529 3.41002 8.76 4.6624 8.67152C6.04411 8.57623 7.42581 8.46732 8.80751 8.38565C9.05935 8.37203 9.18867 8.29036 9.28396 8.04532C10.2845 5.55417 11.2987 3.06983 12.2992 0.578677C12.3877 0.360871 12.5034 0.170291 12.7348 0.0750011C13.1909 -0.115579 13.6401 0.0818075 13.8375 0.578677C14.8584 3.09705 15.8794 5.62224 16.8867 8.14061C16.948 8.29716 17.0229 8.36523 17.193 8.37884C18.1936 8.4401 19.1941 8.51497 20.1947 8.58303C21.8759 8.69874 23.5502 8.82806 25.2314 8.92335C25.6602 8.95058 25.9529 9.11393 26.1299 9.5019C26.1299 9.63803 26.1299 9.77416 26.1299 9.91029C26.0142 10.0668 25.9189 10.2438 25.7759 10.3663C23.7272 12.1088 21.6717 13.8512 19.6093 15.58C19.4323 15.7298 19.3983 15.8523 19.4528 16.0701C20.1198 18.711 20.78 21.3587 21.4402 23.9996C21.4743 24.1357 21.4879 24.2923 21.4539 24.4216C21.3177 24.9593 20.746 25.1567 20.2355 24.8368C18.0166 23.4551 15.7909 22.0802 13.5856 20.6712C13.1909 20.4194 12.9322 20.4262 12.5374 20.678C10.339 22.0802 8.12687 23.4483 5.91478 24.83C5.60169 25.0274 5.28179 25.075 4.96188 24.8572C4.68282 24.6734 4.58753 24.3603 4.68282 23.9792C5.34304 21.3451 5.99646 18.7042 6.66349 16.0701C6.71114 15.8727 6.70433 15.7434 6.53417 15.5937C4.50585 13.892 2.48435 12.1768 0.462837 10.4548C0.292676 10.3051 0.156548 10.0941 0 9.90348Z" fill="#FDC204"/>
</g>
</g>
<defs>
<clipPath id="clip0_88_396">
<rect width="26.1367" height="25" fill="white"/>
</clipPath>
</defs>
</svg>
