<svg width="86" height="75" viewBox="0 0 86 75" fill="none" xmlns="http://www.w3.org/2000/svg">
<g clip-path="url(#clip0_236_285)">
<path d="M62.8622 49.684C63.3246 49.684 63.6252 49.684 63.9257 49.684C68.3647 49.684 72.8036 49.684 77.2426 49.684C81.8434 49.684 85.2189 46.7247 85.6813 42.147C85.9356 39.7888 85.0801 37.7311 83.5311 35.974C86.8835 31.9281 86.0974 26.4719 81.7509 23.4432C82.7913 21.5474 83.1381 19.5129 82.6063 17.3859C82.0746 15.282 80.8493 13.6636 79.0459 12.4383C79.3234 11.606 79.6933 10.8199 79.8551 10.0107C80.9186 4.87817 77.2195 0.138657 71.9713 0.0924149C64.0182 0.023056 56.0419 -0.0231781 48.0888 0.0924149C40.8061 0.208015 33.7084 1.45647 26.9806 4.36954C26.865 4.41579 26.7263 4.46202 26.5644 4.50826C25.3622 2.4275 23.7207 0.924721 21.3856 0.346733C20.692 0.161774 19.9753 0.0461731 19.2586 0.0461731C13.8024 0.023056 8.34618 0.0230637 2.91307 0.0230637C1.08662 0.0230637 0 1.10968 0 2.93613C0 17.5246 0 32.1131 0 46.7247C0 48.5973 1.08662 49.684 2.95931 49.684C10.057 49.684 17.1547 49.684 24.2525 49.684C26.4719 49.684 27.443 48.7129 27.4661 46.4703C27.4661 46.2623 27.4892 46.0773 27.4892 45.8692C27.5586 45.8461 27.6279 45.823 27.6742 45.8461C32.9686 48.3893 38.078 51.2099 42.3782 55.2789C45.9849 58.6775 48.5743 62.6772 49.5453 67.6248C49.684 68.3646 49.7534 69.1044 49.8459 69.8443C50.3545 73.4972 53.2907 75.5779 57.0129 74.9075C62.6079 73.8902 66.2377 69.5206 66.3301 63.7869C66.3995 59.0705 65.4747 54.5853 63.1859 50.4007C63.0934 50.2157 63.024 50.0308 62.8622 49.684ZM27.4661 24.8998C27.4661 20.1371 27.4661 15.3745 27.443 10.635C27.443 10.1032 27.5817 9.82578 28.0903 9.59457C34.0321 6.9127 40.2743 5.57176 46.7478 5.40993C52.1578 5.27121 57.5909 5.34057 63.0009 5.31745C65.9371 5.31745 68.8733 5.31745 71.8326 5.34057C73.266 5.34057 74.3527 6.14975 74.6994 7.37509C75.2543 9.24778 74.029 10.9355 72.0176 11.1436C70.2836 11.3054 69.2663 12.3689 69.3126 13.9179C69.3588 15.4207 70.5379 16.4149 72.2488 16.438C73.058 16.438 73.8671 16.4149 74.6763 16.438C76.3641 16.4842 77.6125 17.7327 77.6356 19.3279C77.6588 20.9232 76.4103 22.1948 74.7226 22.2641C73.9134 22.2872 73.1042 22.2641 72.295 22.2872C70.561 22.3335 69.3588 23.4201 69.3819 24.946C69.4051 26.4488 70.6304 27.5354 72.3412 27.5585C74.0521 27.5585 75.7398 27.5585 77.4507 27.5585C78.3755 27.5585 79.1384 27.9053 79.7164 28.622C80.4562 29.5468 80.6181 30.5872 80.1094 31.6969C79.5777 32.876 78.5835 33.4078 77.3351 33.4078C75.6936 33.4309 74.0521 33.4078 72.4106 33.4309C71.9482 33.4309 71.4858 33.4771 71.0465 33.639C69.9137 34.0551 69.197 35.2805 69.4051 36.3902C69.6363 37.6849 70.6535 38.6328 71.9713 38.6559C73.8671 38.679 75.7861 38.6328 77.6819 38.679C79.1153 38.7022 80.2944 39.835 80.4331 41.176C80.5949 42.7712 79.7395 44.0659 78.2136 44.4127C77.7743 44.5052 77.312 44.5283 76.8496 44.5283C68.8039 44.5283 60.7583 44.5283 52.7127 44.5283C51.0943 44.5283 49.9615 45.638 49.9615 47.1177C49.9615 48.5974 51.1406 49.7071 52.7127 49.7071C53.8456 49.7071 54.9553 49.684 56.0882 49.7302C56.3887 49.7533 56.8049 49.9383 56.9667 50.1926C59.7179 54.331 61.2438 58.8162 61.0358 63.8563C60.9202 66.9081 59.0937 69.1738 56.0882 69.7518C55.3021 69.9136 55.0709 69.6131 54.9091 68.8732C54.4698 66.7462 54.123 64.5499 53.4063 62.5154C51.3486 56.7817 47.4183 52.4121 42.6788 48.7129C38.2167 45.245 33.2229 42.7019 28.1366 40.2743C27.6048 40.02 27.3967 39.7194 27.3967 39.1183C27.4892 34.3557 27.4661 29.6162 27.4661 24.8998ZM16.3687 5.24809C17.2472 5.24809 17.9871 5.24809 18.7269 5.24809C21.1082 5.24809 22.2179 6.35783 22.2179 8.73915C22.2179 20.299 22.2179 31.8588 22.2179 43.4417C22.2179 43.7422 22.1948 44.0428 22.1717 44.3202C16.4843 44.3202 10.9125 44.3202 5.34063 44.3202C5.34063 31.2808 5.34063 18.3107 5.34063 5.31745C7.28268 5.31745 9.15536 5.31745 11.1205 5.31745C11.1205 7.92996 11.1205 10.45 11.1205 12.9932C11.1205 13.4324 11.1436 13.8717 11.213 14.2879C11.4904 15.6519 12.7158 16.5073 14.0798 16.3224C15.4439 16.1374 16.3456 15.0508 16.3687 13.5249C16.3918 10.7968 16.3687 8.0918 16.3687 5.24809Z" fill="#3D3D3D"/>
</g>
<defs>
<clipPath id="clip0_236_285">
<rect width="85.7506" height="75" fill="white" transform="matrix(1 0 0 -1 0 75)"/>
</clipPath>
</defs>
</svg>
