<svg width="86" height="75" viewBox="0 0 86 75" fill="none" xmlns="http://www.w3.org/2000/svg">
<g clip-path="url(#clip0_236_282)">
<path d="M62.8622 25.316C63.3246 25.316 63.6252 25.316 63.9257 25.316C68.3647 25.316 72.8036 25.316 77.2426 25.316C81.8434 25.316 85.2189 28.2753 85.6813 32.853C85.9356 35.2112 85.0801 37.2689 83.5311 39.026C86.8835 43.0719 86.0974 48.5281 81.7509 51.5568C82.7913 53.4526 83.1381 55.4871 82.6063 57.6141C82.0746 59.718 80.8493 61.3364 79.0459 62.5617C79.3234 63.394 79.6933 64.1801 79.8551 64.9893C80.9186 70.1218 77.2195 74.8613 71.9713 74.9076C64.0182 74.9769 56.0419 75.0232 48.0888 74.9076C40.8061 74.792 33.7084 73.5435 26.9806 70.6305C26.865 70.5842 26.7263 70.538 26.5644 70.4917C25.3622 72.5725 23.7207 74.0753 21.3856 74.6533C20.692 74.8382 19.9753 74.9538 19.2586 74.9538C13.8024 74.9769 8.34618 74.9769 2.91307 74.9769C1.08662 74.9769 0 73.8903 0 72.0639C0 57.4754 0 42.8869 0 28.2753C0 26.4027 1.08662 25.316 2.95931 25.316C10.057 25.316 17.1547 25.316 24.2525 25.316C26.4719 25.316 27.443 26.2871 27.4661 28.5297C27.4661 28.7377 27.4892 28.9227 27.4892 29.1308C27.5586 29.1539 27.6279 29.177 27.6742 29.1539C32.9686 26.6107 38.078 23.7901 42.3782 19.7211C45.9849 16.3225 48.5743 12.3228 49.5453 7.37521C49.684 6.63539 49.7534 5.89556 49.8459 5.15573C50.3545 1.50283 53.2907 -0.57793 57.0129 0.0925384C62.6079 1.1098 66.2377 5.47941 66.3301 11.2131C66.3995 15.9295 65.4747 20.4147 63.1859 24.5993C63.0934 24.7843 63.024 24.9692 62.8622 25.316ZM27.4661 50.1002C27.4661 54.8629 27.4661 59.6255 27.443 64.365C27.443 64.8968 27.5817 65.1742 28.0903 65.4054C34.0321 68.0873 40.2743 69.4282 46.7478 69.5901C52.1578 69.7288 57.5909 69.6594 63.0009 69.6825C65.9371 69.6825 68.8733 69.6825 71.8326 69.6594C73.266 69.6594 74.3527 68.8503 74.6994 67.6249C75.2543 65.7522 74.029 64.0645 72.0176 63.8564C70.2836 63.6946 69.2663 62.6311 69.3126 61.0821C69.3588 59.5793 70.5379 58.5851 72.2488 58.562C73.058 58.562 73.8671 58.5851 74.6763 58.562C76.3641 58.5158 77.6125 57.2673 77.6356 55.6721C77.6588 54.0768 76.4103 52.8052 74.7226 52.7359C73.9134 52.7128 73.1042 52.7359 72.295 52.7128C70.561 52.6665 69.3588 51.5799 69.3819 50.054C69.4051 48.5512 70.6304 47.4646 72.3412 47.4415C74.0521 47.4415 75.7398 47.4415 77.4507 47.4415C78.3755 47.4415 79.1384 47.0947 79.7164 46.378C80.4562 45.4532 80.6181 44.4128 80.1094 43.3031C79.5777 42.124 78.5835 41.5922 77.3351 41.5922C75.6936 41.5691 74.0521 41.5922 72.4106 41.5691C71.9482 41.5691 71.4858 41.5229 71.0465 41.361C69.9137 40.9449 69.197 39.7195 69.4051 38.6098C69.6363 37.3151 70.6535 36.3672 71.9713 36.3441C73.8671 36.321 75.7861 36.3672 77.6819 36.321C79.1153 36.2978 80.2944 35.165 80.4331 33.824C80.5949 32.2288 79.7395 30.9341 78.2136 30.5873C77.7743 30.4948 77.312 30.4717 76.8496 30.4717C68.8039 30.4717 60.7583 30.4717 52.7127 30.4717C51.0943 30.4717 49.9615 29.362 49.9615 27.8823C49.9615 26.4026 51.1406 25.2929 52.7127 25.2929C53.8456 25.2929 54.9553 25.316 56.0882 25.2698C56.3887 25.2467 56.8049 25.0617 56.9667 24.8074C59.7179 20.669 61.2438 16.1838 61.0358 11.1437C60.9202 8.09192 59.0937 5.8262 56.0882 5.24821C55.3021 5.08637 55.0709 5.38693 54.9091 6.12676C54.4698 8.25376 54.123 10.4501 53.4063 12.4846C51.3486 18.2183 47.4183 22.5879 42.6788 26.2871C38.2167 29.755 33.2229 32.2981 28.1366 34.7257C27.6048 34.98 27.3967 35.2806 27.3967 35.8817C27.4892 40.6443 27.4661 45.3838 27.4661 50.1002ZM16.3687 69.7519C17.2472 69.7519 17.9871 69.7519 18.7269 69.7519C21.1082 69.7519 22.2179 68.6422 22.2179 66.2608C22.2179 54.701 22.2179 43.1412 22.2179 31.5583C22.2179 31.2578 22.1948 30.9572 22.1717 30.6798C16.4843 30.6798 10.9125 30.6798 5.34063 30.6798C5.34063 43.7192 5.34063 56.6893 5.34063 69.6825C7.28268 69.6825 9.15536 69.6825 11.1205 69.6825C11.1205 67.07 11.1205 64.55 11.1205 62.0068C11.1205 61.5676 11.1436 61.1283 11.213 60.7121C11.4904 59.3481 12.7158 58.4927 14.0798 58.6776C15.4439 58.8626 16.3456 59.9492 16.3687 61.4751C16.3918 64.2032 16.3687 66.9082 16.3687 69.7519Z" fill="#31B5E3"/>
</g>
<defs>
<clipPath id="clip0_236_282">
<rect width="85.7506" height="75" fill="white"/>
</clipPath>
</defs>
</svg>
